{"title":"The.Four.3.2014.480p.BRRip.XviD.AC3 - N3kr4","uid":11492345,"size":1777466888,"categoryP":"video","categoryS":"hd___movies","magnet":"?xt=urn:btih:01d435bc9d8a0e1e768975d924bd066a583b92c4&amp;dn=The.Four.3.2014.480p.BRRip.XviD.AC3+-+N3kr4&amp;tr=udp%3A%2F%2Ftracker.openbittorrent.com%3A80&amp;tr=udp%3A%2F%2Fopen.demonii.com%3A1337&amp;tr=udp%3A%2F%2Ftracker.coppersurfer.tk%3A6969&amp;tr=udp%3A%2F%2Fexodus.desync.com%3A6969","seeders":0,"leechers":1,"uploader":"Falcon.G13","files":2,"time":1416268525,"description":" &lt;a href=&quot;http://i.imgur.com/eBzPpKm.jpg&quot; rel=&quot;nofollow&quot; target=&quot;_NEW&quot;&gt;http://i.imgur.com/eBzPpKm.jpg&lt;/a&gt;\n\nSi da ming bu 3 (2014)\n\nAction - 28 August 2014 (Hong Kong)\n5.1 Your rating: -/10 Ratings: 5.1/10 from 104 users \nReviews: 1 user | 3 critic\n\nEmotionless has left Six Doors, as has Cold Blood, \nwho has decided to investigate the death of Lord Bu on his own. \nThe departure of two of the four constables has effectively left Six Doors... \n &lt;a href=&quot;\nhttp://i.imgur.com/HKq1vH9.jpg&quot; rel=&quot;nofollow&quot; target=&quot;_NEW&quot;&gt;\nhttp://i.imgur.com/HKq1vH9.jpg&lt;/a&gt; &lt;a href=&quot;\nhttp://i.imgur.com/fH1I7qg.jpg&quot; rel=&quot;nofollow&quot; target=&quot;_NEW&quot;&gt;\nhttp://i.imgur.com/fH1I7qg.jpg&lt;/a&gt; &lt;a href=&quot;\nhttp://i.imgur.com/GyejmXj.jpg&quot; rel=&quot;nofollow&quot; target=&quot;_NEW&quot;&gt;\nhttp://i.imgur.com/GyejmXj.jpg&lt;/a&gt; &lt;a href=&quot;\nhttp://i.imgur.com/ME1bXGD.jpg&quot; rel=&quot;nofollow&quot; target=&quot;_NEW&quot;&gt;\nhttp://i.imgur.com/ME1bXGD.jpg&lt;/a&gt; &lt;a href=&quot;\nhttp://i.imgur.com/hgzAGDN.jpg&quot; rel=&quot;nofollow&quot; target=&quot;_NEW&quot;&gt;\nhttp://i.imgur.com/hgzAGDN.jpg&lt;/a&gt;\n\nGeneral\nComplete name : The.Four.3.2014.480p.BRRip.XviD.AC3 - N3kr4.avi\nFormat : AVI\nFormat/Info : Audio Video Interleave\nFormat profile : OpenDML\nFile size : 1.66 GiB\nDuration : 1h 46mn\nOverall bit rate : 2 222 Kbps\nWriting application : Lavf55.7.100\n\nVideo\nID : 0\nFormat : MPEG-4 Visual\nFormat profile : Advanced Simple@L1\nFormat settings, BVOP : No\nFormat settings, QPel : No\nFormat settings, GMC : No warppoints\nFormat settings, Matrix : Default (H.263)\nCodec ID : XVID\nCodec ID/Hint : XviD\nDuration : 1h 46mn\nBit rate : 1 820 Kbps\nWidth : 720 pixels\nHeight : 304 pixels\nDisplay aspect ratio : 2.35:1\nFrame rate : 23.976 fps\nColor space : YUV\nChroma subsampling : 4:2:0\nBit depth : 8 bits\nScan type : Progressive\nCompression mode : Lossy\nBits/(Pixel*Frame) : 0.347\nStream size : 1.36 GiB (82%)\nWriting library : Lavc55.12.100\n\nAudio #1\nID : 1\nFormat : AC-3\nFormat/Info : Audio Coding 3\nMode extension : CM (complete main)\nFormat settings, Endianness : Big\nCodec ID : 2000\nDuration : 1h 46mn\nBit rate mode : Constant\nBit rate : 192 Kbps\nChannel(s) : 2 channels\nChannel positions : Front: L R\nSampling rate : 48.0 KHz\nBit depth : 16 bits\nCompression mode : Lossy\nStream size : 146 MiB (9%)\nAlignment : Aligned on interleaves\nInterleave, duration : 32 ms (0.77 video frame)\nInterleave, preload duration : 32 ms\n\nAudio #2\nID : 2\nFormat : AC-3\nFormat/Info : Audio Coding 3\nMode extension : CM (complete main)\nFormat settings, Endianness : Big\nCodec ID : 2000\nDuration : 1h 46mn\nBit rate mode : Constant\nBit rate : 192 Kbps\nChannel(s) : 2 channels\nChannel positions : Front: L R\nSampling rate : 48.0 KHz\nBit depth : 16 bits\nCompression mode : Lossy\nStream size : 146 MiB (9%)\nAlignment : Aligned on interleaves\nInterleave, duration : 32 ms (0.77 video frame)\nInterleave, preload duration : 32 ms","torrent":{"xt":"urn:btih:01d435bc9d8a0e1e768975d924bd066a583b92c4","amp;dn":"The.Four.3.2014.480p.BRRip.XviD.AC3+-+N3kr4","amp;tr":["udp%3A%2F%2Ftracker.openbittorrent.com%3A80","udp%3A%2F%2Fopen.demonii.com%3A1337","udp%3A%2F%2Ftracker.coppersurfer.tk%3A6969","udp%3A%2F%2Fexodus.desync.com%3A6969"],"infoHash":"01d435bc9d8a0e1e768975d924bd066a583b92c4","infoHashBuffer":{"type":"Buffer","data":[1,212,53,188,157,138,14,30,118,137,117,217,36,189,6,106,88,59,146,196]},"announce":[],"urlList":[]}}